<svg width="425" height="374" viewBox="0 0 425 374" fill="none" xmlns="http://www.w3.org/2000/svg">
<g clip-path="url(#clip0_1524_2)">
<g filter="url(#filter0_d_1524_2)">
<g filter="url(#filter1_d_1524_2)">
<path d="M227.846 25.652L164.828 119.4H67.3037L0.966325 25.652H227.846Z" fill="#1CC88A" stroke="#444444"/>
<path d="M178.646 119.4L246.64 25.652H422.933L339.182 119.4H178.646Z" fill="#1CC88A" stroke="#444444"/>
</g>
<g filter="url(#filter2_i_1524_2)">
<path d="M259.709 256.246L180.682 374V120.378H259.709V256.246Z" fill="#1CC88A"/>
</g>
<path d="M259.209 256.094L181.182 372.358V120.878H259.209V256.094Z" stroke="#444444"/>
</g>
</g>
<path d="M261.719 103.77C242.662 60.7599 285.569 58.1464 292.231 76.1165C305.252 98.8453 299.737 108.696 290.792 111.708C293 120.368 298.838 139.939 293.1 146.903C285.928 155.608 281.159 159.76 276.425 148.316C272.637 139.161 269.529 120.182 268.448 111.837C265.644 112.641 260.372 112.153 261.719 103.77Z" fill="#FFFAE2"/>
<path d="M279.632 112.748C283.094 113.115 287.174 112.926 290.792 111.708M292.231 76.1165C285.569 58.1464 242.662 60.7599 261.719 103.77M292.231 76.1165C305.252 98.8453 299.737 108.696 290.792 111.708M292.231 76.1165C292.231 76.1165 267.751 90.0983 280.567 81.8461C293.384 73.594 267.11 86.6591 267.11 86.6591L269.801 101.097C266.556 99.2309 263.072 100.867 261.719 103.77M261.719 103.77C260.372 112.153 265.644 112.641 268.448 111.837C269.529 120.182 272.637 139.161 276.425 148.316C281.159 159.76 285.928 155.608 293.1 146.903C298.838 139.939 293 120.368 290.792 111.708" stroke="#444444" stroke-width="2"/>
<path d="M261.502 104.076C241.989 63.9678 283.483 54.8033 292.679 76.1168L267.334 86.4298L270.25 102.014C264.867 99.0347 261.686 102.93 261.502 104.076Z" fill="#444444"/>
<path d="M235.243 317.027L246.457 253.622H301.405L287.276 317.027H235.243Z" fill="#444444"/>
<path d="M334.487 317.027L324.82 249.946H282.108V281.499L291.632 305.593L300.991 317.027H334.487Z" fill="#444444"/>
<path d="M389.278 142.477C393.033 137.548 401.306 127.259 403.324 121.235C403.324 121.235 409.67 107.329 408.18 105.467C406.719 103.641 403.029 112.461 400.26 116.261C403.733 111.462 407.068 98.7964 405.54 98.1286C402.94 96.992 397.166 110.503 394.445 115.197C397.195 110.333 403.785 96.3217 401.307 93.0231C400.198 91.5452 392.744 105.374 390.22 111.795C391.722 107.829 393.984 97.9038 393.984 95.85C393.984 89.1349 385.017 106.927 382.691 114.316L374.908 139.385L389.278 142.477Z" fill="#FFFAE2" stroke="#444444" stroke-width="2"/>
<path d="M375.489 120.383C375.11 124.685 372.407 132.992 370.553 136.616L378.578 132.957L386.602 129.298C389.206 126.572 384.257 121.951 382.178 119.69C380.821 110.207 380.915 105.672 378.667 105.408C375.242 105.006 376.036 114.177 375.489 120.383Z" fill="#FFFAE2"/>
<path d="M370.554 136.615C372.407 132.991 375.111 124.684 375.49 120.382C376.036 114.177 375.242 105.005 378.667 105.408C380.916 105.672 380.822 110.207 382.179 119.69C384.754 119.701 386.817 126.015 384.213 128.741" stroke="#444444" stroke-width="2"/>
<path d="M347.404 171.239C330.413 122.744 301.447 118.458 289.088 122.376H271.809C237.611 126.785 195.134 187.772 199.454 208.345C202.91 224.804 231.096 230.313 243.335 231.048L240.491 258.678L339.124 263.821L330.485 195.487C332.525 201.243 340.132 211.872 354.243 208.345C368.354 204.819 386.667 163.553 393.386 142.122L372.962 122.376L347.404 171.239Z" fill="white" stroke="#444444"/>
<path d="M265.406 117.847C265.406 117.847 268.585 131.213 270.526 133.695L294.106 131.485L295.505 116.427L265.406 117.847Z" fill="white"/>
<path d="M237.279 194.607C237.279 186.127 248.494 175.355 248.494 175.355L245.354 202.17C240.651 200.043 237.279 197.174 237.279 194.607Z" fill="#FFFAE2"/>
<path d="M271.147 208.816C271.147 208.816 256.182 207.068 245.354 202.17M245.354 202.17C240.651 200.043 237.279 197.174 237.279 194.607C237.279 186.127 248.494 175.355 248.494 175.355L245.354 202.17Z" stroke="#444444" stroke-width="2"/>
<path d="M329.238 191.169C329.238 191.169 320.715 157.707 311.071 151.061" stroke="#444444" stroke-width="2"/>
<path d="M287.531 92.557C303.403 89.191 306.116 89.3131 288.64 97.8156L287.531 92.557Z" fill="#FFFAE2"/>
<path d="M289.509 91.3657C302.134 91.0542 305.109 90.3454 291.556 97.0918" stroke="#444444" stroke-width="2" stroke-linecap="round" stroke-linejoin="round"/>
<path d="M291.57 97.2645L293.209 101.85C292.004 103.396 288.804 105.537 285.643 101.736" stroke="#444444" stroke-width="2" stroke-linecap="round" stroke-linejoin="round"/>
<ellipse rx="1.20271" ry="2.85578" transform="matrix(0.911399 -0.413966 0.397763 0.916426 292.515 87.1665)" fill="#444444"/>
<ellipse rx="1.20271" ry="2.85578" transform="matrix(0.911399 -0.413966 0.397763 0.916426 282.379 91.1973)" fill="#444444"/>
<path d="M258.921 214.306C241.149 222.577 271.876 224.02 279.501 224.714C285.97 225.303 323.269 217.724 322.974 216.057C322.49 213.328 308.268 216.718 305.946 215.506C311.213 214.503 327.08 210.825 327.273 208.571C327.467 206.317 310.583 210.68 306.318 210.337C314.394 207.61 330.018 202.437 327.772 199.819C326.663 198.526 309.744 204.438 301.173 205.875C308.747 202.178 325.818 199.055 323.517 196.805C321.969 195.291 302.322 199.034 293.721 201.957C296.43 199.683 298.009 196.39 298.919 193.569C299.5 191.769 297.404 190.68 296.019 191.961C289.264 198.205 274.93 209.994 258.921 214.306Z" fill="#FFFAE2" stroke="#444444" stroke-width="2" stroke-linecap="round" stroke-linejoin="round"/>
<path d="M283.945 244.033L249.945 237.26L251.802 208.638L278.051 203.601L283.945 244.033Z" fill="white"/>
<path d="M238.917 230.249C238.917 230.249 256.55 232.317 279.35 230.249" stroke="#444444" stroke-width="2" stroke-linecap="round" stroke-linejoin="round"/>
<defs>
<filter id="filter0_d_1524_2" x="-4" y="25.152" width="432.051" height="356.848" filterUnits="userSpaceOnUse" color-interpolation-filters="sRGB">
<feFlood flood-opacity="0" result="BackgroundImageFix"/>
<feColorMatrix in="SourceAlpha" type="matrix" values="0 0 0 0 0 0 0 0 0 0 0 0 0 0 0 0 0 0 127 0" result="hardAlpha"/>
<feOffset dy="4"/>
<feGaussianBlur stdDeviation="2"/>
<feComposite in2="hardAlpha" operator="out"/>
<feColorMatrix type="matrix" values="0 0 0 0 0.266667 0 0 0 0 0.266667 0 0 0 0 0.266667 0 0 0 1 0"/>
<feBlend mode="normal" in2="BackgroundImageFix" result="effect1_dropShadow_1524_2"/>
<feBlend mode="normal" in="SourceGraphic" in2="effect1_dropShadow_1524_2" result="shape"/>
</filter>
<filter id="filter1_d_1524_2" x="-4" y="25.152" width="432.051" height="102.748" filterUnits="userSpaceOnUse" color-interpolation-filters="sRGB">
<feFlood flood-opacity="0" result="BackgroundImageFix"/>
<feColorMatrix in="SourceAlpha" type="matrix" values="0 0 0 0 0 0 0 0 0 0 0 0 0 0 0 0 0 0 127 0" result="hardAlpha"/>
<feOffset dy="4"/>
<feGaussianBlur stdDeviation="2"/>
<feComposite in2="hardAlpha" operator="out"/>
<feColorMatrix type="matrix" values="0 0 0 0 0 0 0 0 0 0 0 0 0 0 0 0 0 0 0.25 0"/>
<feBlend mode="normal" in2="BackgroundImageFix" result="effect1_dropShadow_1524_2"/>
<feBlend mode="normal" in="SourceGraphic" in2="effect1_dropShadow_1524_2" result="shape"/>
</filter>
<filter id="filter2_i_1524_2" x="180.682" y="120.378" width="79.0271" height="257.622" filterUnits="userSpaceOnUse" color-interpolation-filters="sRGB">
<feFlood flood-opacity="0" result="BackgroundImageFix"/>
<feBlend mode="normal" in="SourceGraphic" in2="BackgroundImageFix" result="shape"/>
<feColorMatrix in="SourceAlpha" type="matrix" values="0 0 0 0 0 0 0 0 0 0 0 0 0 0 0 0 0 0 127 0" result="hardAlpha"/>
<feOffset dy="4"/>
<feGaussianBlur stdDeviation="2"/>
<feComposite in2="hardAlpha" operator="arithmetic" k2="-1" k3="1"/>
<feColorMatrix type="matrix" values="0 0 0 0 0 0 0 0 0 0 0 0 0 0 0 0 0 0 0.25 0"/>
<feBlend mode="normal" in2="shape" result="effect1_innerShadow_1524_2"/>
</filter>
<clipPath id="clip0_1524_2">
<rect width="424.051" height="374" fill="white"/>
</clipPath>
</defs>
</svg>
