<?xml version="1.0" encoding="UTF-8"?>
<!DOCTYPE svg PUBLIC "-//W3C//DTD SVG 1.1//EN" "http://www.w3.org/Graphics/SVG/1.1/DTD/svg11.dtd">
<!-- Creator: CorelDRAW -->
<svg xmlns="http://www.w3.org/2000/svg" xml:space="preserve" width="1411.11mm" height="1011.06mm" version="1.1" style="shape-rendering:geometricPrecision; text-rendering:geometricPrecision; image-rendering:optimizeQuality; fill-rule:evenodd; clip-rule:evenodd"
viewBox="0 0 141111.1 101106.1"
 xmlns:xlink="http://www.w3.org/1999/xlink"
 xmlns:xodm="http://www.corel.com/coreldraw/odm/2003">
 <defs>
  <style type="text/css">
   <![CDATA[
    .fil2 {fill:#FEFEFE;fill-rule:nonzero}
    .fil9 {fill:#FAC4B3;fill-rule:nonzero}
    .fil1 {fill:#EAEAEA;fill-rule:nonzero}
    .fil41 {fill:#D169A8;fill-rule:nonzero}
    .fil7 {fill:#C83445;fill-rule:nonzero}
    .fil3 {fill:#D4D4D4;fill-rule:nonzero}
    .fil24 {fill:#C86DAB;fill-rule:nonzero}
    .fil11 {fill:#B73444;fill-rule:nonzero}
    .fil6 {fill:#C5C5C6;fill-rule:nonzero}
    .fil10 {fill:#AB3341;fill-rule:nonzero}
    .fil42 {fill:#C05AA1;fill-rule:nonzero}
    .fil4 {fill:#9F6137;fill-rule:nonzero}
    .fil28 {fill:#B459A1;fill-rule:nonzero}
    .fil13 {fill:#7A2E37;fill-rule:nonzero}
    .fil37 {fill:#8B5F58;fill-rule:nonzero}
    .fil17 {fill:#714A30;fill-rule:nonzero}
    .fil36 {fill:#846237;fill-rule:nonzero}
    .fil20 {fill:#715132;fill-rule:nonzero}
    .fil12 {fill:#5A392D;fill-rule:nonzero}
    .fil34 {fill:#6D5232;fill-rule:nonzero}
    .fil38 {fill:#59423E;fill-rule:nonzero}
    .fil35 {fill:#554431;fill-rule:nonzero}
    .fil32 {fill:#578BC8;fill-rule:nonzero}
    .fil33 {fill:#477CBE;fill-rule:nonzero}
    .fil15 {fill:#22A665;fill-rule:nonzero}
    .fil0 {fill:#3A77BB;fill-rule:nonzero}
    .fil29 {fill:#32894C;fill-rule:nonzero}
    .fil5 {fill:#3A73B7;fill-rule:nonzero}
    .fil19 {fill:#23945B;fill-rule:nonzero}
    .fil25 {fill:#3B5CA7;fill-rule:nonzero}
    .fil30 {fill:#28606B;fill-rule:nonzero}
    .fil40 {fill:#275F8C;fill-rule:nonzero}
    .fil18 {fill:#275168;fill-rule:nonzero}
    .fil16 {fill:#28485A;fill-rule:nonzero}
    .fil26 {fill:#374C84;fill-rule:nonzero}
    .fil39 {fill:#275478;fill-rule:nonzero}
    .fil27 {fill:#304467;fill-rule:nonzero}
    .fil22 {fill:url(#id0)}
    .fil31 {fill:url(#id1)}
    .fil23 {fill:url(#id2)}
    .fil14 {fill:url(#id3)}
    .fil8 {fill:url(#id4)}
    .fil21 {fill:url(#id5)}
   ]]>
  </style>
  <radialGradient id="id0" gradientUnits="userSpaceOnUse" gradientTransform="matrix(40.5194 -0 -0 -29.7311 -3.18007E+06 1.32487E+06)" cx="80468.6" cy="43111.71" r="1938.79" fx="80468.6" fy="43111.71">
   <stop offset="0" style="stop-opacity:1; stop-color:#D7D5D4"/>
   <stop offset="1" style="stop-opacity:1; stop-color:#86B6AD"/>
  </radialGradient>
  <radialGradient id="id1" gradientUnits="userSpaceOnUse" gradientTransform="matrix(14.3823 -0 -0 -11.7427 -1.07574E+06 538621)" xlink:href="#id0" cx="80385.16" cy="42269.09" r="5608.99" fx="80385.16" fy="42269.09">
  </radialGradient>
  <radialGradient id="id2" gradientUnits="userSpaceOnUse" gradientTransform="matrix(62.3415 -0 -0 -50.9616 -4.93313E+06 2.19464E+06)" xlink:href="#id0" cx="80420.76" cy="42235.88" r="1294.86" fx="80420.76" fy="42235.88">
  </radialGradient>
  <radialGradient id="id3" gradientUnits="userSpaceOnUse" gradientTransform="matrix(14.3918 -0 -0 -11.7646 -1.07704E+06 539161)" xlink:href="#id0" cx="80425.42" cy="42238.65" r="5609" fx="80425.42" fy="42238.65">
  </radialGradient>
  <radialGradient id="id4" gradientUnits="userSpaceOnUse" gradientTransform="matrix(14.4109 -0 -0 -11.7802 -1.07818E+06 539710)" xlink:href="#id0" cx="80396.14" cy="42230.15" r="5601.59" fx="80396.14" fy="42230.15">
  </radialGradient>
  <radialGradient id="id5" gradientUnits="userSpaceOnUse" gradientTransform="matrix(14.4113 -0 -0 -11.7807 -1.07814E+06 539868)" xlink:href="#id0" cx="80390.37" cy="42241.05" r="5601.4" fx="80390.37" fy="42241.05">
  </radialGradient>
 </defs>
 <g id="Camada_x0020_1">
  <metadata id="CorelCorpID_0Corel-Layer"/>
  <g id="_1778927249120">
   <polygon class="fil0" points="93322.68,21847.17 105078.46,28640.54 105078.46,52450.81 93322.68,45657.32 "/>
   <polygon class="fil1" points="92976.69,21538.8 81220.6,27764.33 81220.6,52142.25 92976.69,45349 "/>
   <polygon class="fil2" points="93263.43,21686.79 81507.28,27912.33 81507.28,52290.37 93263.43,45497.12 "/>
   <polygon class="fil1" points="91406.09,25008.43 83780.92,29053.17 83780.92,34713.27 91406.09,30531.29 "/>
   <polygon class="fil1" points="91406.09,32136.13 83780.92,36180.99 83780.92,41841.09 91406.09,37659.05 "/>
   <polygon class="fil1" points="91406.09,39128.27 83780.92,43353.04 83780.92,49013.2 91406.09,44565.57 "/>
   <polygon class="fil1" points="81220.6,27764.33 81507.28,27912.33 93263.43,21680.42 92976.69,21538.8 "/>
   <polygon class="fil3" points="81220.6,52142.25 81507.28,52290.37 81507.28,27912.33 81220.6,27764.33 "/>
   <path class="fil4" d="M83243.6 39607.78c0,400.85 -268.41,725.93 -599.38,725.93 -331.21,0 -599.62,-325.08 -599.62,-725.93 0,-400.85 268.41,-725.69 599.62,-725.69 330.97,0 599.38,324.84 599.38,725.69z"/>
   <polygon class="fil5" points="102815.53,22029.95 97648.51,19056.65 97641.91,21431.47 102808.92,24404.72 "/>
   <polygon class="fil1" points="102412.33,22262.98 97245.32,19289.62 97238.11,21664.44 102405.72,24637.74 "/>
   <polygon class="fil2" points="97245.32,19289.62 97648.51,19056.65 102815.53,22029.95 102412.33,22262.98 "/>
   <polygon class="fil6" points="102412.33,22262.98 102815.53,22029.95 102808.92,24404.72 102405.72,24637.74 "/>
   <polygon class="fil7" points="98991.49,20767.32 98291.46,20363.4 98287.85,21665.82 99011.32,22083.31 99011.92,21841.76 98546.24,21572.8 98546.84,21263.59 98963.85,21504.36 98964.45,21264.79 98547.44,21024.01 98548.64,20753.55 98990.89,21008.93 "/>
   <path class="fil7" d="M100065.88 21387.73l-292.64 -168.91 -96.74 182.37c-28.24,58.83 -50.47,104.14 -77.51,171.73l-3.61 -1.92c-26.43,-88.99 -51.67,-167.35 -84.72,-265.89l-98.55 -295.04 -294.43 -169.93 314.26 825.98 -329.88 469.66 292.62 168.9 94.94 -181.35c35.46,-70.48 64.3,-121.56 87.73,-183.39l3.61 1.93c31.85,93.91 58.29,177.02 100.35,292.21l102.15 294.91 295.64 170.9 -334.7 -860.9 321.48 -451.26z"/>
   <polygon class="fil7" points="100478.08,21625.62 100220.91,21477.08 100216.7,22779.5 100474.48,22928.04 "/>
   <polygon class="fil7" points="101485.17,22207.16 100613.88,21704.22 100613.28,21951.66 100917.93,22127.36 100914.92,23182.4 101172.11,23330.94 101175.11,22275.96 101484.57,22454.54 "/>
   <path class="fil8" d="M71508.01 60463.38c-1932.45,0 -3499.13,-559.07 -3499.13,-1248.82 0,-689.76 1566.68,-1248.88 3499.13,-1248.88 1932.69,0 3499.32,559.12 3499.32,1248.88 0,689.75 -1566.63,1248.82 -3499.32,1248.82z"/>
   <path class="fil9" d="M73146.27 58447.64c-93.86,-0.66 -190.61,-9.25 -288.91,-35.51 -329.47,-85.51 -637.54,-675.21 -813.18,-955.77 -114.59,-182.01 -240.65,-251.83 -386.31,-270.99 40.56,-103.17 76.67,-224.19 97.4,-370.69 80.46,-572.77 -224.13,-2248.52 -246.18,-2832.45 -21.99,-584.25 209.83,-1047.47 242.64,-1334.21 33.53,-286.02 -198.53,-881.68 -242.64,-1355.54l1267.81 -99.57c0,0 -33.23,1190.48 -55.28,1499.21 -22.3,308.74 -253.45,2767.02 -264.03,3593.84 -11.42,826.88 129.37,1448.13 628.28,2083.45 21.4,27.1 41.89,53.36 60.4,78.23z"/>
   <path class="fil10" d="M73537.68 58953.65c-66.1,220.58 -595.72,231.16 -915.03,93.86 -302.3,-129.61 -377.95,-600.53 -515.86,-698.17l0 -0.66c-7.93,-5.71 -15.68,-9.91 -24.27,-12.74 -154.49,-54.68 -121.62,705.8 -121.62,705.8 -121.02,32.87 -192.16,-77.57 -192.16,-77.57 5.7,-297.26 -105.34,-848.88 -261.15,-1124.08 -115.97,-204.96 33.47,-355.06 150.28,-654.72 145.66,19.16 271.72,88.98 386.31,270.99 175.64,280.56 483.71,870.26 813.18,955.77 98.3,26.26 195.05,34.85 288.91,35.51 345.8,441.18 391.41,506.01 391.41,506.01z"/>
   <path class="fil9" d="M69876.78 56405.66c-155.8,334.93 -130.87,735.6 -90.37,1153.21 4.21,41.41 11.48,80.46 20.73,117.48 88.82,340.88 385.65,523.61 429.76,626.96 49.15,114.35 -188.68,212.66 -626.97,144.33 -438.34,-68.32 -674.55,-897.17 -674.55,-897.17l-163.56 843.16 -163.75 0c0,0 -24.21,-1080.28 0,-1398.93 24.94,-319.55 327.31,-434.14 515.92,-532.2 187.97,-98.3 474.71,-1398.92 580.7,-1759.03 106.66,-359.88 155.81,-1285 245.46,-1734.58 90.38,-450.42 605.4,-973.37 605.4,-973.37l-78.9 -802.61 1030.94 -74.68c0,0 -59.73,884.98 -134.42,1179.65 -75.41,294.62 -1341.23,3771.94 -1496.39,4107.78z"/>
   <path class="fil10" d="M69609.93 58447.64c-396.88,-61.95 -628.28,-748.64 -667.94,-876.63 -4.45,-13.45 -6.61,-20.54 -6.61,-20.54l-0.66 3.54 -162.9 839.62 -163.75 0c0,0 -24.21,-1080.28 0,-1398.93 4.45,-54.01 16.53,-102.45 34.85,-145.89 89.06,-211.99 324.6,-304.53 481.07,-386.31 0,0 112.43,417.62 223.47,691.5 137.31,339.38 274.55,375.13 459.68,522.35 88.82,340.88 385.65,523.61 429.76,626.96 49.15,114.35 -188.68,212.66 -626.97,144.33z"/>
   <path class="fil9" d="M70137.27 41917.77c364.07,142.82 436.78,477.34 341.12,986.83 -95.35,509.31 -562.36,2397.9 -562.36,2397.9 0,0 700.32,2037.36 785.17,2111.63 85.09,74.26 382.16,424.46 382.16,604.73 0,180.45 -188.43,764.26 -364.73,870.26 -176.54,106 -516.1,52.88 -441.65,-95.66 74.26,-148.54 201.41,-169.69 222.8,-265.35 21.15,-95.42 -244.14,-477.29 -275.92,-880.6 0,0 -1119.03,-1750.86 -1175.03,-2270.74 -55.71,-519.89 432.15,-2620.95 527.81,-3013.39 95.42,-392.73 366.24,-521.87 560.63,-445.61z"/>
   <path class="fil9" d="M71169.29 40348.01c88.39,292.27 548.97,586.89 870.68,643.73 0,0 731.04,-1464.36 257.84,-2107.84 -473.13,-643.74 -1317.8,839.61 -1128.52,1464.11z"/>
   <path class="fil11" d="M70805.88 41391.51c600.76,27.76 1589.33,591.69 1942.6,1191.98 353.26,600.58 436.6,1729.29 362.09,1916.22 -150.94,378.14 -370.87,688.86 -388.53,962.56 -17.61,273.7 -141.27,529.8 52.94,1377.59 194.33,847.55 485.69,3267.08 8.77,5218.69 0,0 -953.54,167.71 -2287.03,-680.09 0,0 -220.59,-2092.7 -423.8,-2693.22 -203.16,-600.53 -158.88,-1616.02 0,-2242.75 158.93,-626.96 79.55,-1704.35 -26.45,-2101.71 -105.99,-397.31 -855.23,-2031 -109.72,-2737.27 0,0 295.1,-238.44 869.13,-212z"/>
   <path class="fil9" d="M72461.14 42588.6c364.25,142.76 436.78,477.34 341.36,986.83 -95.66,509.31 -562.43,2397.89 -562.43,2397.89 0,0 700.39,2037.37 785.23,2111.64 84.85,74.27 381.87,424.46 381.87,604.72 0,180.51 -188.38,764.21 -364.68,870.21 -176.3,106.06 -515.92,52.93 -441.65,-95.6 74.27,-148.54 201.66,-169.69 222.81,-265.35 21.15,-95.42 -243.96,-477.29 -275.92,-880.6 0,0 -1119.03,-1750.86 -1174.8,-2270.75 -56,-519.83 432.16,-2620.94 527.58,-3013.44 95.42,-392.68 366.48,-521.81 560.63,-445.55z"/>
   <path class="fil12" d="M72457.17 38963.21c43.62,176.72 -291.55,448.26 -406.14,895.14 -114.83,446.94 -459.25,2557.43 -1006.67,3131.34 -547.64,574.08 -671.3,750.56 -671.3,724.12 0,-26.44 -821.11,-980.22 -838.72,-2516.69 -17.66,-1536.4 662.24,-3099.3 1209.64,-3196.53 547.65,-96.92 1554.5,318.05 1713.19,962.62z"/>
   <path class="fil13" d="M72106.79 58348.68c-7.93,-5.71 -15.68,-9.91 -24.27,-12.74 -154.49,-54.68 -121.62,705.8 -121.62,705.8 -121.02,32.87 -192.16,-77.57 -192.16,-77.57 5.7,-297.26 -105.34,-848.88 -261.15,-1124.08 0,0 405.72,137.9 599.2,508.59z"/>
   <path class="fil13" d="M68934.72 57554.01l-162.9 839.62 -163.75 0c0,0 -24.21,-1080.28 0,-1398.93 4.45,-54.01 16.53,-102.45 34.85,-145.89l291.8 705.2z"/>
   <path class="fil14" d="M89815.67 54918.77c-1935.15,0 -3503.77,-559.73 -3503.77,-1250.38 0,-690.66 1568.62,-1250.63 3503.77,-1250.63 1935.09,0 3503.95,559.97 3503.95,1250.63 0,690.65 -1568.86,1250.38 -3503.95,1250.38z"/>
   <path class="fil15" d="M88967.88 37184.35c-210.25,584.18 -774.6,2456.72 -865.63,2758.01 -554.5,14.96 -915.69,-230.74 -1127.93,-453.79 132.5,-847.13 578.53,-2358.42 772.26,-2774.53 254.3,-547.17 987.5,-858.79 1138.44,-791.79 433.24,190.84 311.37,625.89 82.86,1262.1z"/>
   <path class="fil9" d="M89515.05 42299.27c-140.37,381.86 -699.68,549.39 -699.68,549.39 0,0 -1705.07,-2470.84 -1857.57,-2814.43 -36.35,-81.96 -25.54,-281.45 16.52,-545.66 212.24,223.05 573.43,468.75 1127.93,453.79 -7.94,27.09 -12.14,41.39 -12.14,41.39 89.05,636.23 1424.94,2315.52 1424.94,2315.52z"/>
   <path class="fil9" d="M90828.47 33035.36c627.2,120.77 772.01,197.63 796.23,651.42 24.03,453.96 -24.22,1369.41 -398.21,1734.09 0,0 -808.13,-21.15 -1025.17,-841.36 -217.34,-820.21 627.15,-1544.15 627.15,-1544.15z"/>
   <path class="fil9" d="M89562.88 34652.22l-176.3 1372.96c0,0 563.93,391.18 1110.43,199.44 0,0 86.17,-782.36 492.79,-1012.44l-1426.92 -559.96z"/>
   <path class="fil16" d="M90587.15 52824.8c-234.89,65.62 -865.58,-37.74 -1204.78,-84.67 -338.24,-47.17 -1411.24,131.84 -1608.75,-56.36 -178.04,-168.85 -158.21,-551.43 5.11,-1023.91 18.51,-52.64 38.33,-106.83 60.39,-161.76 216.62,-546.32 263.79,-1995.48 329.89,-2964.46 65.67,-969.9 432.57,-1638.02 432.57,-1638.02 0,0 -301.47,-2380.53 -413.83,-3274.58 -113.51,-894.3 323.28,-1526.31 323.28,-1526.31l2471.74 444.05c0,0 -931.98,4403.77 -978.9,4808.59 -47.17,405.24 -1091.51,4084.64 -1063.09,4338.93 2.82,24.28 16.95,50.72 42.06,77.58 233.63,260.06 1350.67,637.78 1350.67,637.78 282.3,150.28 488.82,356.98 253.64,423.14z"/>
   <path class="fil17" d="M90587.15 52824.8c-234.89,65.62 -865.58,-37.74 -1204.78,-84.67 -338.24,-47.17 -1411.24,131.84 -1608.75,-56.36 -178.04,-168.85 -158.21,-551.43 5.11,-1023.91 208.69,116.15 611.94,256.52 1204.11,104.02 233.63,260.06 1350.67,637.78 1350.67,637.78 282.3,150.28 488.82,356.98 253.64,423.14z"/>
   <path class="fil18" d="M92633.58 53901.52c-701.89,-59.96 -2163.85,-139.04 -2264.38,-399.76 -99.56,-261.57 0,-762.47 0,-762.47 0,0 0,-2.88 -0.65,-7.75 -13.65,-136.82 -203.83,-2054.13 -299.91,-2556.34 -99.87,-520.97 -39.9,-1822.73 341.12,-2183.02 0,0 -1342.31,-3726.34 -1182.54,-4607.83 160.26,-880.6 159.6,-764.45 159.6,-764.45l2685.9 126.07c0,0 -40.56,4244.41 -141.03,5305.93 -99.63,1061.53 -302.13,4561.99 -302.13,4561.99 0,0 1685.19,867.13 1764.99,977.58 80.39,109.72 -59.97,370.44 -760.97,310.05z"/>
   <path class="fil17" d="M92633.58 53901.52c-701.89,-59.96 -2163.85,-139.04 -2264.38,-399.76 -99.56,-261.57 0,-762.47 0,-762.47 0,0 0,-2.88 -0.65,-7.75 244.44,64.12 688.25,112.61 1261.01,-117.65 0,0 1685.19,867.13 1764.99,977.58 80.39,109.72 -59.97,370.44 -760.97,310.05z"/>
   <path class="fil19" d="M89762.31 35851.77c552.03,67.59 1850.97,702.07 2004.31,906.37 153.17,204.31 625.64,1429.99 370.21,3140.77 -255.2,1710.78 -63.69,2847.06 -63.69,2847.06 0,0 -2400.3,485.21 -3562.11,-651.01 0,0 165.96,-1340.57 0,-1953.41 -165.97,-612.84 -663.8,-1353.32 -574.51,-2732.23 89.47,-1378.85 574.51,-1710.78 1825.79,-1557.55z"/>
   <path class="fil15" d="M92604.26 40024.98c-461.66,104.01 -876.21,341.36 -1117.71,500.89 -222.39,-694.62 -528.06,-2161.68 -625.7,-2617.57 -107.5,-504.45 212.89,-1019.04 437.5,-1074.81 352.61,-87.49 537.92,-82.44 745.95,375.07 172.57,377.48 463.88,2194.5 559.96,2816.42z"/>
   <path class="fil9" d="M94256.64 44275.76c-161.1,19.83 -470.26,-60.57 -430.42,-154.67 40.56,-94.09 248.65,-127.63 248.65,-127.63 0,0 81.3,-336.31 13.64,-383.18 -67,-46.99 -510.87,-262.29 -565.08,-605.63 0,0 -1747.79,-1721.36 -1970.12,-2285.71 -21.15,-54.02 -44.11,-118.98 -66.76,-193.07 241.5,-159.53 656.05,-396.88 1117.71,-500.89 20.73,131.11 32.21,209.58 32.21,209.58l1391.41 2319.84c0,0 565.07,329.95 652.56,733.21 87.06,403.07 -262.05,968.08 -423.8,988.15z"/>
   <path class="fil20" d="M91136.6 34372.39c0,0 193.48,-411.67 280.07,-750.63 86.59,-338.96 356.14,-159.11 349.72,-349.72 -6.38,-190.84 -1043.27,-967.06 -1927.41,-547.22 0,0 -375.25,89.05 -464.54,388.11 -88.99,299 -368.89,1692.03 203.64,1882.88 572.52,190.84 1014.17,14.96 1139.58,-190.85 125.16,-205.62 418.94,-432.57 418.94,-432.57z"/>
   <path class="fil9" d="M91136.6 34372.39c0,0 -6.19,-451.57 -267.16,-387.87 -260.66,63.45 -171.61,623.17 159.12,763.12l108.04 -375.25z"/>
   <path class="fil21" d="M81930.01 70587.64c-1932.51,0 -3499.14,-559.1 -3499.14,-1248.64 0,-689.78 1566.63,-1248.85 3499.14,-1248.85 1932.45,0 3499.08,559.07 3499.08,1248.85 0,689.54 -1566.63,1248.64 -3499.08,1248.64z"/>
   <path class="fil22" d="M82036 48674.9c443.16,93.44 880.18,104.02 908.6,728.76 28.43,624.56 -56.9,1949.45 -671.97,1627.67 -615.06,-321.71 -1145.04,-711.74 -1173.47,-1420.49 -28.42,-708.74 487.92,-1030.7 936.84,-935.94z"/>
   <polygon class="fil23" points="82074.76,51893.9 82450.74,50622.8 81303.04,50276.15 81021.17,51893.9 "/>
   <path class="fil24" d="M80823.06 51445.47c-178.52,-141.51 -790.53,467.19 -979.14,844.48 -188.87,377.48 -907.52,1491.46 -826.64,2344.95 80.87,853.57 1671.12,1329.77 1671.12,1329.77l449.1 -817.57 -314.44 -3701.63z"/>
   <path class="fil9" d="M83541.58 69317.41c-351.51,-180.06 -747.26,-503.13 -854.64,-742.9l-143.67 718.65 -264.03 0 -179.36 -1042.38c0,0 -323.76,-347.31 0,-969.21l0 -0.67c0,0 179.36,-1366.11 -36.35,-2156.58 -215.54,-790.7 -526.5,-1736.97 -179.19,-2479.61l-71.87 -1114.46 1220.89 611.34c-11.18,36.11 -56.19,752.79 -68.27,824.6 -12.14,71.86 -63.27,3919.15 9.26,4254.14 37.01,174.5 232.72,600.73 446.21,984.85 197.03,355.67 409.03,676.77 524.28,728.55 239.09,107.55 -52.64,562.84 -403.26,383.68z"/>
   <path class="fil9" d="M81956.21 68730.32c-511.71,-122.52 -1030.94,-949.84 -1030.94,-949.84l-112.61 949.84 -183.57 0 -204.06 -1246.02c-235.55,-510.81 30.41,-878.61 30.41,-878.61 50.71,-490.32 0,-2573.54 -81.72,-3206.87 -81.79,-633.39 295.93,-1216.07 295.93,-1216.07l0 -929.33 1113.56 -112.36c0,0 -41.22,1082.91 -101.61,1501.43 -60.57,419.12 -456.13,4180.96 -456.13,4180.96 89.65,369.97 426.81,806.75 730.07,1144.15 249.67,277.46 476.03,487.26 522.3,537.95 102.45,112.39 -10.16,347.08 -521.63,224.77z"/>
   <path class="fil25" d="M81956.21 68730.32c-511.71,-122.52 -1030.94,-949.84 -1030.94,-949.84 0,0 -95.42,-198.53 -500.24,-296.18 -235.55,-510.81 30.41,-878.61 30.41,-878.61 0,0 234.28,-46.93 369.36,134.42 134.66,182.24 563.51,1132.07 903.73,1196.85 70.31,13.46 147.88,23.38 227.01,30.64 249.67,277.46 476.03,487.26 522.3,537.95 102.45,112.39 -10.16,347.08 -521.63,224.77z"/>
   <path class="fil26" d="M80925.27 67780.48l-112.61 949.84 -183.57 0 -204.06 -1246.02c404.82,97.65 500.24,296.18 500.24,296.18z"/>
   <path class="fil25" d="M83541.58 69317.41c-351.51,-180.06 -747.26,-503.13 -854.64,-742.9l-143.67 718.65 -264.03 0 -179.36 -1042.38c0,0 -323.76,-347.31 0,-969.21 156.47,32.86 392.08,104.01 486.78,285.41 123,236.87 338.53,704.3 634.71,704.3 69.65,0 137.3,-26.22 199.19,-66.1 197.03,355.67 409.03,676.77 524.28,728.55 239.09,107.55 -52.64,562.84 -403.26,383.68z"/>
   <path class="fil26" d="M82686.94 68574.51l-143.67 718.65 -264.03 0 -179.36 -1042.38c0,0 370.02,38.36 587.06,323.73z"/>
   <path class="fil27" d="M80054.35 55780.43c0,0 -395.99,851.52 -153.83,1560.75 241.98,709.1 814.08,2974.98 675.27,4185.76 0,0 825.08,864.98 2479.19,795.76 0,0 1161.58,-3627.13 -105.75,-5593.11l-2894.88 -949.16z"/>
   <path class="fil28" d="M81604.45 51391.21c412.57,157.19 1628.58,914.36 1811.49,1166.92 182.73,252.55 -148.06,1288.95 -269.92,1837.68 -122.1,548.55 -253.87,2107.43 -196.79,2333.78 57.27,226.54 -1231.45,409.45 -2023.96,-165.3 -792.69,-574.92 -870.92,-783.86 -870.92,-783.86 0,0 -87.02,-1393.39 60.87,-2812.86 148.05,-1419.65 392.01,-1994.4 1489.23,-1576.36z"/>
   <path class="fil24" d="M83670.95 53556.86c-62.61,314.5 -502.94,1868.57 -394.9,2497.52 35.64,206.22 131.54,525.18 245.46,870.92 -416.29,204.24 -710.06,264.64 -896.46,276.11 -133.09,-321.77 -233.38,-682.49 -247.74,-1065.97 -44.71,-1186.03 180.08,-2542.89 377.29,-3001.25 197.7,-457.51 436.79,-636.7 695.11,-502.28 232.66,121.69 284.7,610.45 221.24,924.95z"/>
   <path class="fil9" d="M83667.41 59980.57c-301.71,9.25 -364.26,-215.55 -301.71,-628.95 62.61,-412.75 152.99,-476.02 36.36,-771.96 -79.74,-200.76 -499.58,-705.2 -777.01,-1378.25 186.4,-11.47 480.17,-71.87 896.46,-276.11 233.39,709.4 542.12,1529.86 554.26,1716.92 17.85,278.14 -106.66,1329.75 -408.36,1338.35z"/>
   <path class="fil12" d="M83051.44 49004.61c27.58,217.46 -111.04,683.99 -327.42,952.88 -216.2,268.84 -485.09,1257 -292.27,1648.59 0,0 -409.21,-490.98 -485.22,-1104.97 0,0 93.62,1297.86 -444.29,1297.86 -537.73,0 -1017.24,-216.26 -911.91,-800.86 105.1,-584.66 450.19,-765.83 450.19,-765.83 0,0 -725.03,-490.98 -251.41,-1479.14 473.55,-987.98 2162.94,-532.03 2262.33,251.47z"/>
   <path class="fil9" d="M62863.37 63151.08c-205.14,-42.3 -523.85,530.88 -495.43,1479.38 28.24,948.31 788.3,2043.55 1135.19,2079 346.84,35.27 2413.1,-706.52 3542.94,-932.64 35.52,-7.02 658.27,-169.62 651.18,-615.66 -7.03,-445.86 -764.44,-98.97 -764.44,-98.97 0,0 70.96,-375.31 -14.12,-360.95 -84.85,14.06 -318.41,566.1 -318.41,566.1 0,0 -2392.19,693.54 -2668.29,417.61 -275.93,-276.11 -403.32,-1953.36 -636.88,-2186.98 -233.63,-233.57 -431.74,-346.89 -431.74,-346.89z"/>
   <path class="fil9" d="M65269.86 59835.15c0,0 361.43,520.31 -128.23,2196.24 0,0 -915.21,33.89 -1067.96,-983.11 -152.5,-1017 568.98,-1264.08 1196.19,-1213.13z"/>
   <path class="fil29" d="M63919.85 62483.79c579.13,37.92 1843.45,836.32 1971.44,1092.18 128.05,256.09 290.05,896.27 0,1766.54 -290.23,870.5 -221.9,2056.77 204.73,2585.87 0,0 -1672.63,1015.49 -3038.09,-179.15 0,0 599.45,-1092.41 -284.93,-2696.71 -884.15,-1604.36 498.31,-2611.45 1146.85,-2568.73z"/>
   <path class="fil30" d="M66727.42 73824.73l-1409.97 0c-54.62,-300.82 -351.94,-1796.73 -1026.49,-2832.48 0,0 -241.98,2270.29 -334.76,2816.61 -0.84,4.86 -1.74,10.14 -2.89,15.87l-1382.57 0c39,-117.46 85.93,-225.22 142.35,-318 0,0 259.82,-1894.13 60.15,-2625.75 -199.67,-731.65 -369.54,-1849.4 284.94,-3131.51l0 -0.24 1677.91 99.15 984.01 58.19 375.5 22.25 0.23 0c0,0 531.97,1581.41 509.07,3615.03 -13.45,1196.85 57.27,1870.09 122.52,2280.88z"/>
   <path class="fil12" d="M64172.16 59075.27c545,-28 1091.32,442.74 1130.74,608.88 39.66,165.96 79.14,498.07 -134.17,806.38 -213.56,308.5 -276.83,640.61 -276.83,980.65 0,340.04 110.62,933.06 -403.26,1557.86 -514.17,624.5 -948.97,1162.23 -948.97,1162.23 0,0 -893.58,-727.43 -751.23,-1707.9 142.35,-980.64 213.55,-972.71 110.62,-1454.92 -102.69,-482.39 -276.76,-1874.28 1273.1,-1953.18z"/>
   <path class="fil9" d="M65720.52 63580.83c254.36,138.81 458.42,689.58 255.44,1462.38 -202.74,772.91 -534.19,1805.12 -473.14,2144.92 60.99,339.86 583.76,1716.52 749.24,2378.73 165.55,662.22 8.83,1498.77 -339.8,1420.33 -348.45,-78.45 -418.27,-479.33 -331.02,-810.33 87.07,-331.22 72.28,-548.95 -85.93,-871.36 -158.03,-322.41 -1038.21,-1612.03 -933.48,-2378.7 104.44,-766.91 357.23,-2169.62 574.93,-2788.41 217.94,-618.61 482.81,-612.84 583.76,-557.56z"/>
   <path class="fil31" d="M56043.2 61699.05l0 -0.19 -8.48 0c-57.65,-1.42 -114.92,-3.34 -171.78,-5.74l0 -0.27 -6.79 0c-128.18,-5.5 -254.25,-13.43 -377.78,-23.73l0 -0.31 -3.55 0c-43.21,-3.61 -86.07,-7.55 -128.65,-11.73l0 -0.28 -2.9 0c-19.13,-1.89 -38.18,-3.85 -57.19,-5.85l0 -0.16 -1.57 0c-35.76,-3.77 -71.31,-7.72 -106.58,-11.89l0 -0.13 -1.15 0c-62.48,-7.38 -124.26,-15.31 -185.13,-23.89l0 -0.14 -0.96 0c-13.78,-1.95 -27.41,-3.99 -41.1,-6l0 -0.01 -0.12 0c-26.16,-3.83 -52.16,-7.77 -78,-11.82l0 -0.2 -1.27 0c-70.94,-11.13 -140.65,-23.05 -209.04,-35.77l0 -0.29 -1.51 0c-98.48,-18.34 -194.21,-38.3 -286.91,-59.78l0 -0.31 -1.32 0c-118.92,-27.58 -232.81,-57.68 -341.18,-90.07l0 -0.06 -0.2 0c-26.32,-7.86 -52.27,-15.88 -77.92,-24.01l0 -0.03 -0.09 0c-36.72,-11.64 -72.76,-23.55 -108.07,-35.72l0 -0.33 -0.92 0c-5.73,-1.97 -11.42,-3.96 -17.11,-5.96l0 -0.05 -0.14 0c-22.27,-7.79 -44.27,-15.68 -65.96,-23.68l0 -0.35 -0.97 0c-47.16,-17.41 -92.95,-35.3 -137.23,-53.66l0 -0.42 -1 0c-28.34,-11.77 -56,-23.73 -83.12,-35.87l0 -0.18 -0.42 0c-30.73,-13.76 -60.61,-27.77 -89.72,-41.99l0 -0.07 -0.14 0c-3.96,-1.94 -7.95,-3.86 -11.88,-5.81l0 -0.2 -0.4 0c-3.84,-1.9 -7.79,-3.77 -11.61,-5.68l0 -0.33 -0.67 0c-3.84,-1.92 -7.54,-3.88 -11.35,-5.81l0 -0.2 -0.4 0c-3.91,-1.99 -7.74,-3.99 -11.62,-5.99l0 -0.02 -0.05 0c-26.75,-13.74 -52.84,-27.64 -78.06,-41.77l0 -0.29 -0.5 0c-24.64,-13.81 -48.47,-27.82 -71.61,-42l0 -0.07 -0.12 0c-84.54,-51.78 -158.88,-105.94 -222.21,-162.12l0 -0.11 -0.12 0c-1.94,-1.72 -3.97,-3.42 -5.89,-5.15l0 -0.86 -0.99 0c-43.14,-38.87 -80.96,-78.7 -113.17,-119.37l0 -0.81 -0.62 0c-41.52,-52.56 -73.45,-106.55 -95.52,-161.68l0 -0.56 -0.22 0c-10.03,-25.12 -18,-50.47 -23.82,-76.05l0 -2.06 -0.51 0c-2.19,-9.82 -3.95,-19.68 -5.5,-29.56l0 -0.49 -0.09 0c-3.58,-23.05 -5.49,-46.27 -5.49,-69.64 0,-33.19 3.7,-66.07 10.82,-98.61l0.77 0 0 -3.12c8.93,-39.56 22.94,-78.62 41.94,-117.06l0.12 0 0 -0.25c11.98,-24.21 26.05,-48.15 41.87,-71.85l0.2 0 0 -0.28c41.37,-61.92 95.67,-122.03 161.78,-179.99l0.45 0 0 -0.39c20.68,-18.11 42.49,-36.01 65.45,-53.69l0.65 0 0 -0.5c20.85,-16.03 42.53,-31.9 65.21,-47.57l0.89 0 0 -0.6c17.3,-11.94 35.23,-23.74 53.57,-35.45l0.51 0 0 -0.32c82.16,-52.41 174.59,-102.49 276.3,-149.9l0.1 0 0 -0.05c44.01,-20.51 89.62,-40.56 137.02,-60.04l1.19 0 0 -0.47c161.9,-66.47 343.21,-126.77 540.68,-179.8l0.11 0 0 -0.03c62.44,-16.76 126.57,-32.76 192.15,-48.03l0.14 0 0 -0.04c168.67,-39.28 347.37,-73.52 534.48,-102.11l0.3 0 0 -0.05c41.12,-6.29 82.68,-12.25 124.57,-17.98l1.62 0 0 -0.22c80.51,-10.99 162.46,-20.94 245.69,-29.83l0.67 0 0 -0.07c18.95,-2.03 37.9,-4.03 56.97,-5.94l3.12 0 0 -0.3c160.25,-15.99 325.13,-28.01 493.77,-35.75l4.97 0 0 -0.24c51.87,-2.36 104.15,-4.23 156.7,-5.77l5.54 0 0 -0.17c93.54,-2.68 188.08,-4.1 283.56,-4.1 94.7,0 188.47,1.39 281.27,4.02l0 0.25 7.81 0c51.79,1.51 103.31,3.37 154.43,5.67l0 0.34 7.25 0c37.86,1.74 75.46,3.76 112.93,5.92l0 0.09 1.6 0c31.66,1.83 63.17,3.82 94.54,5.96l0 0.05 0.75 0c52.24,3.56 104.08,7.51 155.48,11.89l0 0.13 1.48 0c99.36,8.48 197.09,18.44 292.96,29.87l0 0.17 1.53 0c116.51,13.91 230.27,29.94 340.97,47.97l0 0.1 0.6 0c11.87,1.94 23.65,3.93 35.45,5.91l0 0.1 0.6 0c34.13,5.73 68.05,11.59 101.55,17.7l0 0.33 1.87 0c41.97,7.66 83.35,15.68 124.32,23.92l0 0.12 0.6 0c9.81,1.97 19.69,3.91 29.44,5.91l0 0.09 0.43 0c46.61,9.59 92.55,19.56 137.78,29.88l0 0.17 0.71 0c82.34,18.81 162.19,38.88 239.64,60.01l0 0.07 0.27 0c42.76,11.67 84.74,23.69 125.92,36.03l0 0.02 0.08 0c57.63,17.28 113.79,35.17 168.16,53.71l0 0.37 1.08 0c5.71,1.95 11.29,3.95 16.95,5.91l0 0.1 0.29 0c28.41,9.83 56.37,19.82 83.83,29.99l0 0.06 0.18 0c36.88,13.66 72.86,27.62 107.99,41.86l0 0.2 0.49 0c43.22,17.53 85.24,35.45 125.69,53.83l0 0.25 0.55 0c84.27,38.31 162.31,78.43 233.8,120.15l0 0.03 0.05 0c10.17,5.93 20.09,11.93 29.99,17.93l0 0.1 0.15 0c16.34,9.9 32.33,19.88 47.92,29.95l0 0.09 0.13 0c12.22,7.9 24.17,15.86 35.92,23.87l0 0.16 0.25 0c31.64,21.56 61.73,43.46 89.88,65.73l0 0.37 0.47 0c32.3,25.58 62.15,51.63 89.67,78.09l0 0.03 0.03 0c4.06,3.9 8.03,7.82 11.99,11.74l0 0.28 0.27 0c1.95,1.93 3.82,3.87 5.74,5.81l0 0.19 0.19 0 5.82 5.9 0 0.11 0.11 0c1.94,1.99 3.97,3.97 5.89,5.97l0 0.04 0.04 0c31.97,33.33 59.97,67.32 84.09,101.85l0 0.3 0.21 0c4.01,5.75 8.02,11.49 11.81,17.27l0 0.76 0.51 0c37.04,56.67 63,114.86 77.6,174.21l0 0.04 0.01 0c2.29,9.29 4.26,18.61 6,27.96l0 2.09 0.36 0c2.54,13.97 4.39,28 5.65,42.09l0 11.99 0.86 0c0.57,8.81 0.94,17.64 0.94,26.5 0,9.22 -0.42,18.41 -0.97,27.58l-0.83 0 0 10.91c-1.23,14.46 -3.25,28.84 -5.83,43.17l-0.18 0 0 1.02c-6.24,34.1 -16.22,67.84 -29.96,101.13l-0.09 0 0 0.23c-24.58,59.48 -60.97,117.58 -108.15,174.03l0 0 0 0c-43.09,51.55 -95.16,101.7 -155.71,150.22l-0.53 0 0 0.43c-22.62,18.11 -46.45,36 -71.39,53.64l-0.71 0 0 0.52c-28.53,20.17 -58.4,40.05 -89.85,59.57l-0.28 0 0 0.17c-77.58,48.14 -164.1,94.2 -258.36,138.04l-0.03 0 0 0.01c-44.14,20.53 -89.91,40.58 -137.47,60.08l-0.73 0 0 0.29c-109.6,44.9 -228.02,86.98 -354.32,125.89l-0.2 0 0 0.07c-33.22,10.23 -67.09,20.19 -101.38,29.98l-0.77 0 0 0.23c-13.9,3.96 -27.87,7.9 -41.94,11.78l-0.12 0 0 0.03c-29.55,8.18 -59.5,16.18 -89.79,24.01l-0.35 0 0 0.09c-7.59,1.97 -15.1,3.98 -22.74,5.92l-1.3 0 0 0.34c-7.55,1.92 -15.25,3.77 -22.85,5.67l-1.18 0 0 0.29c-40.91,10.22 -82.39,20.15 -124.55,29.75l-1.63 0 0 0.36c-45.09,10.25 -90.83,20.17 -137.28,29.69l-0.93 0 0 0.19c-9.67,1.98 -19.48,3.87 -29.2,5.82l-0.84 0 0 0.17c-41.12,8.23 -82.68,16.21 -124.8,23.86l-1.39 0 0 0.24c-110.47,20.04 -224.4,38 -341.24,53.84l-1.26 0 0 0.17c-192.36,26.05 -392.8,46.21 -599.61,59.92l-1.28 0 0 0.09c-72.33,4.79 -145.46,8.75 -219.27,11.93l-3.05 0 0 0.12c-58.08,2.48 -116.61,4.42 -175.52,5.89l-10.76 0 0 0.24c-77.09,1.83 -154.82,2.82 -233.2,2.82 -79.16,0 -157.63,-1.03 -235.49,-2.87z"/>
   <path class="fil32" d="M52922.62 47277.48c-182.55,301.53 143.25,1986.71 172.16,2132.13 -241.92,110.68 -524.7,164.22 -745.82,189.33 -33.42,-223.28 -336.92,-2258.18 -345.09,-2596.66 -8.23,-358.55 1240.82,-2305.18 1381.79,-2486.95 141.09,-182.73 368.89,-182.73 529.2,0 181.83,206.23 397.07,670.17 306.45,909.92 -91.21,239.52 -1108.69,1538.45 -1298.69,1852.23z"/>
   <path class="fil9" d="M53443.59 50305.47c-115.73,57.92 -314.69,-289.39 -314.69,-289.39 0,0 0,752.61 -169.21,843.82 -169.92,90.62 -533.58,49.82 -724.3,-57.92 -190,-107.56 116.51,-1182.97 116.51,-1182.97 0,0 -0.78,-6.67 -2.94,-20.07 221.12,-25.11 503.9,-78.65 745.82,-189.33 0.78,6.84 1.5,10.57 1.5,10.57 206.28,231.41 463.1,827.54 347.31,885.29z"/>
   <path class="fil9" d="M55503.12 40925.4c392.38,144.57 1039.47,34.44 674.62,1776.04 0,0 -158.34,743.54 -330.37,771.05 -172.15,27.59 -612.72,-96.5 -867.44,-461.23 -254.65,-364.92 523.19,-2085.86 523.19,-2085.86z"/>
   <path class="fil9" d="M55271.54 44133.17c0,0 110.03,-704.53 391.78,-849.71l-1153.34 -426.87 -145.29 1029.98 906.85 246.6z"/>
   <path class="fil33" d="M54714.82 43804.18c427.47,70.07 1290.1,381.03 1663.13,715.12 373.03,334.09 606.18,1010.21 458.54,1717.57 -147.64,707.18 -248.71,1437.74 -93.26,1911.78 155.45,474.04 310.84,1087.96 310.84,1087.96 0,0 -1989.53,715.17 -3116.43,-264.21 0,0 209.82,-1088.02 0,-1841.89 -209.83,-753.94 -730.56,-1771.84 -489.6,-2626.84 240.89,-854.87 1266.78,-699.49 1266.78,-699.49z"/>
   <path class="fil32" d="M59967.89 48223.16c-167.71,446.03 -364.5,609.29 -364.5,609.29 0,0 -1787.82,-800.19 -2199.72,-1157.84 -411.85,-357.65 -1211.93,-1756.63 -1406.38,-2043.97 -194.44,-287.83 -78.66,-762.71 54.2,-877.72 270.16,-234.76 337.7,-305.25 701.35,212.84 363.6,517.24 876.46,1721.78 1303.93,2017.11 427.53,295.52 1880.71,1235.66 1880.71,1235.66 0,0 11,1.5 30.41,4.63z"/>
   <path class="fil9" d="M60707.03 49423.06c-70.54,186.22 -599.02,474.28 -637.6,349.54 -38.51,-123.84 124.75,-318.23 124.75,-318.23 0,0 -498.02,-295.51 -590.79,-621.92 0,0 196.79,-163.26 364.5,-609.29 130.44,23.55 644.14,124.5 739.14,313.78 108.4,218.18 69.59,699.91 0,886.12z"/>
   <path class="fil34" d="M58075.33 58430.46c-354.04,189.28 -667.16,242.82 -891.29,249.49 -28.24,-414.98 -41.58,-858.61 -129.91,-1075.47 -170.71,-419.36 -630.81,-856.38 -849.77,-1385.46 -218.9,-528.48 80.94,-1677.31 80.94,-1677.31 0,0 -1393.76,-1931.78 -2122.57,-3244.6 -729.54,-1312.94 -224.85,-2324.47 -224.85,-2324.47l2048.29 181.77c0,0 1220.83,4622.19 1293.59,5034.7 72.71,412.75 546.93,3688.42 783.68,4217.74 3.72,8.17 7.45,16.34 11.89,23.61z"/>
   <path class="fil35" d="M59759.13 59026.54c-146.07,327.96 -966.1,218.84 -1221.47,445.19 -255.26,226.3 -911.37,356.99 -1166.62,89.9 -72.71,-75.83 -115.79,-232.3 -143.98,-427.53 729.54,68.98 1036.05,-258.26 1145.83,-435.04 320.51,124.74 759.28,6.85 967.13,-19.11 291.55,-36.42 564.59,18.44 419.11,346.59z"/>
   <path class="fil9" d="M58372.89 58699.06c-109.78,176.78 -416.29,504.02 -1145.83,435.04 -20.06,-137.31 -32.63,-293.95 -43.02,-454.15 224.13,-6.67 537.25,-60.21 891.29,-249.49 68.26,138.14 174.38,221.24 297.56,268.6z"/>
   <path class="fil35" d="M54593.15 61440.78c15.61,173.66 -785.91,394.66 -1120.6,157.97 -334.75,-237.53 -1488.75,-1622.39 -1299.53,-1957.81 189.99,-335.41 458.65,-383 458.65,-383 201.12,538.15 680.56,818.71 980.41,946.33 93.49,423.09 257.54,830.37 395.56,920.26 268.65,173.66 569.16,141.69 585.51,316.25z"/>
   <path class="fil36" d="M55984.73 54766.5c-1360.34,2625.09 -2135.18,4111.5 -2372.65,4459.47 -14.91,22.3 -27.46,48.31 -37.14,78.72 -332.47,-295.33 -658.27,-491.89 -658.27,-491.89 0,0 411.19,-2322.3 1059.79,-3255.84 647.93,-932.81 952.15,-1106.46 952.15,-1106.46 0,0 -588.5,-3495.6 -382.93,-4444.09 205.55,-949.16 382.93,-932.88 382.93,-932.88l2125.52 163.32c0,0 290.95,2903.9 -1069.4,5529.65z"/>
   <path class="fil9" d="M53612.08 60204.27c-299.85,-127.62 -779.29,-408.18 -980.41,-946.33l285 -445.14c0,0 325.8,196.56 658.27,491.89 -69.76,198.35 -39.36,553.77 37.14,899.58z"/>
   <path class="fil37" d="M56383.96 41655.06c-166.98,521.63 -577.33,442.97 -566.21,797.79 11.12,354.83 -322.86,825.32 -928.49,903.32 0,0 -458.6,2518.67 -0.72,3645.21 -44.53,-39.24 -1883.54,-1711.2 -729.54,-4044.56l20.79 -274.61c0,0 -437.86,-1001.13 -20.79,-1689.81 417.8,-688.85 1168.91,-396.4 1168.91,-396.4 751.04,291.73 1223.04,537.25 1056.05,1059.06z"/>
   <path class="fil38" d="M55052.58 43156.49l-163.32 199.68c-241.92,-368.95 -730.26,-399.35 -730.26,-399.35l20.79 -274.61c711.75,111.35 872.79,474.28 872.79,474.28z"/>
   <path class="fil39" d="M47832.28 73824.73l-1454.92 0c-35.4,-60.39 -70.67,-124.07 -105.64,-192.17 -334.69,-652.31 -135.2,-1485.76 -125.47,-1528.08 -3.36,9.25 -34.25,49.81 -261.92,-204.51 -212.72,-237.33 -597.4,-731.65 -1292.21,-1748.68 -140.24,-205.61 -263.84,-407.91 -372.36,-605.57 -1059.13,-1929.16 -697.75,-3435.4 -697.75,-3435.4l3655.01 759.15 0.11 0c0,0 286.38,4156.94 433.42,4660.72 94.34,321.31 113.39,1482.69 221.73,2294.54z"/>
   <path class="fil40" d="M47177.13 66869.47c0,0 -1093.19,4274.18 -1290.64,5022.12 -0.72,2.89 -1.44,5.75 -2.16,8.38 -96.86,352.17 -532.26,1123.46 -1042.12,1924.76l-1906.55 0c171.01,-342.25 346.29,-640.41 496.57,-790.92 493.51,-493.43 752.56,-492.54 912.09,-901.56 91.7,-234.7 -58.65,-1428.47 -124.56,-2586.53 -49.1,-858.59 -51.74,-1697.55 124.56,-2112.31l240.53 -592.78 0.42 0 2591.75 28.84 0.11 0z"/>
   <path class="fil41" d="M44272.33 61396.25c-175.87,340.46 -938.82,2241.85 -1091.69,2606.34 -152.86,363.66 -293.11,2958.1 -281.99,3216.42 0.72,16.29 3.66,32.81 8.17,49.09 -400.07,-59.48 -829.73,126.73 -829.73,126.73 0,0 0,-3392.24 82.37,-3803.42 82.39,-411.01 961.64,-2683.74 1113.78,-3106.64 152.87,-422.25 486.12,-420.92 774.84,-293.05 422.97,185.49 400.19,863.83 224.25,1204.53z"/>
   <path class="fil9" d="M43122 68193.49c-70.49,187.75 -551.37,633.79 -892.01,293.09 -340.65,-340.69 -152.9,-1091.75 -152.9,-1091.75 0,0 429.66,-186.21 829.73,-126.73 1.44,6.68 2.95,13.29 5.89,20.08 77.93,221.72 457.94,383.72 479.44,564.62 23.02,199.65 -270.15,340.69 -270.15,340.69z"/>
   <path class="fil9" d="M42912.71 67288.18c-2.94,-6.79 -4.45,-13.4 -5.89,-20.08 399.95,58.65 5.89,20.08 5.89,20.08z"/>
   <path class="fil9" d="M46274.85 56989.65c597.33,34.14 902.17,0 892.49,1020.07 -5.23,550.11 -105.75,1545.3 -361.73,1596.67 -256.04,51.08 -992.97,210.68 -1238.97,-107.98 -246,-318.7 -228.93,-1515.31 -109.42,-1906.91 119.45,-391.83 817.63,-601.85 817.63,-601.85z"/>
   <path class="fil9" d="M45039.54 59051.72l-140.43 1048.72c0,0 694.57,390.27 1375.74,81.3l0 -1130.02 -1235.31 0z"/>
   <path class="fil20" d="M45235.13 59372.11c357.59,104.92 1074.02,-296.42 1325.07,-1154.79 251.06,-858.12 601.67,-653.82 657.38,-799.95 55.64,-145.84 146.07,-629.37 -236.52,-643.25 -382.58,-13.88 -664.27,-28 -754.71,-104.44 -90.43,-76.49 -528.36,-309.45 -853.67,-187.77 -325.38,121.62 -774.01,490.32 -728.82,942.55 0,0 -271.24,208.68 -201.72,587.72 69.59,379.04 322.14,525.18 389.56,789.63 67.41,264.2 24.34,459.01 403.43,570.3z"/>
   <path class="fil9" d="M46351.69 58854.2c0,0 -503.72,-334.51 -303.8,-699.91 199.98,-365.33 526.85,388.54 526.85,388.54l-223.05 311.37z"/>
   <path class="fil42" d="M45507.81 59859.79c847.01,116.81 2175.87,978.48 2219.73,1226.82 43.81,248.17 -43.86,3387.86 -219.08,4103.39 -175.22,715.6 -331.44,1679.47 -331.44,1679.47 0,0 -2501.61,686.28 -3655.26,-759.39 0,0 262.83,-1533.4 146.02,-2146.67 -116.81,-613.32 -730.2,-3256.49 -146.02,-3840.68 584.13,-584.24 1986.05,-262.94 1986.05,-262.94z"/>
   <path class="fil41" d="M50660.77 68505.11c-541.1,187.96 -290.95,-249.25 -290.95,-436.35 0,-186.89 -343.65,-551.41 -353.99,-883.94 0,0 -1913.27,-1435.28 -2276.93,-2058.51 -363.65,-624.32 -1028.59,-2485.62 -1164.39,-3129.77 -135.14,-644.82 457.15,-974.46 457.15,-974.46 499.46,-186.88 696.91,-180.27 967,630.93 270.89,811.2 364.38,2225.8 811.14,2880.29 388.89,569.88 1358.9,1469.46 1728.51,1960.68 55.64,74.27 97.94,138.81 122.46,191.44 186.99,405.97 540.97,1632.8 0,1819.69z"/>
   <path class="fil9" d="M50660.77 68505.11c-541.1,187.96 -290.95,-249.25 -290.95,-436.35 0,-186.89 -343.65,-551.41 -353.99,-883.94 0,0 597.41,-74.93 522.48,-690.84 55.64,74.27 97.94,138.81 122.46,191.44 186.99,405.97 540.97,1632.8 0,1819.69z"/>
  </g>
 </g>
</svg>
